<svg id="visual" viewBox="0 0 960 540" width="960" height="540" xmlns="http://www.w3.org/2000/svg" xmlns:xlink="http://www.w3.org/1999/xlink" version="1.1"><rect x="0" y="0" width="960" height="540" fill="#ffffff"></rect><path d="M0 384L22.8 399.5C45.7 415 91.3 446 137 448.8C182.7 451.7 228.3 426.3 274 426.8C319.7 427.3 365.3 453.7 411.2 468.8C457 484 503 488 548.8 488.2C594.7 488.3 640.3 484.7 686 470.3C731.7 456 777.3 431 823 422C868.7 413 914.3 420 937.2 423.5L960 427L960 541L937.2 541C914.3 541 868.7 541 823 541C777.3 541 731.7 541 686 541C640.3 541 594.7 541 548.8 541C503 541 457 541 411.2 541C365.3 541 319.7 541 274 541C228.3 541 182.7 541 137 541C91.3 541 45.7 541 22.8 541L0 541Z" fill="#03256c"></path><path d="M0 499L22.8 495.5C45.7 492 91.3 485 137 471.7C182.7 458.3 228.3 438.7 274 444.7C319.7 450.7 365.3 482.3 411.2 490.2C457 498 503 482 548.8 476C594.7 470 640.3 474 686 480.2C731.7 486.3 777.3 494.7 823 494.3C868.7 494 914.3 485 937.2 480.5L960 476L960 541L937.2 541C914.3 541 868.7 541 823 541C777.3 541 731.7 541 686 541C640.3 541 594.7 541 548.8 541C503 541 457 541 411.2 541C365.3 541 319.7 541 274 541C228.3 541 182.7 541 137 541C91.3 541 45.7 541 22.8 541L0 541Z" fill="#1768ac"></path><path d="M0 460L22.8 466.5C45.7 473 91.3 486 137 497.5C182.7 509 228.3 519 274 518.7C319.7 518.3 365.3 507.7 411.2 503.8C457 500 503 503 548.8 507.2C594.7 511.3 640.3 516.7 686 514C731.7 511.3 777.3 500.7 823 492.8C868.7 485 914.3 480 937.2 477.5L960 475L960 541L937.2 541C914.3 541 868.7 541 823 541C777.3 541 731.7 541 686 541C640.3 541 594.7 541 548.8 541C503 541 457 541 411.2 541C365.3 541 319.7 541 274 541C228.3 541 182.7 541 137 541C91.3 541 45.7 541 22.8 541L0 541Z" fill="#03256c"></path></svg>